# xmcd
#
# Track frame offsets:
#	182
#	24052
#	43945
#	57700
#	80890
#	101255
#	119720
#	139617
#	163295
#	187045
#	209482
#	229345
#
# Disc length: 3367 seconds
#
# Revision: 1
# Processed by: cddbd v1.5.1PL0 Copyright (c) Steve Scherf et al.
# Submitted via: CDex 1.50Beta5
#
DISCID=b40d250c
DTITLE=浜田麻里 - Introducing
DYEAR=1900
DGENRE=Rock
TTITLE0=In My Private Heaven
TTITLE1=Hold On
TTITLE2=With All My Heart
TTITLE3=I Have A Story To Tell
TTITLE4=Looking For Love
TTITLE5=Someone Like You
TTITLE6=If It's Love
TTITLE7=Color Blind
TTITLE8=Til Tomorrow
TTITLE9=Going Through the Motions
TTITLE10=Heaven knows
TTITLE11=More Than Ever
EXTD=
EXTT0=
EXTT1=
EXTT2=
EXTT3=
EXTT4=
EXTT5=
EXTT6=
EXTT7=
EXTT8=
EXTT9=
EXTT10=
EXTT11=
PLAYORDER=
